<svg width="44" height="44" viewBox="0 0 44 44" fill="none" xmlns="http://www.w3.org/2000/svg">
<path fill-rule="evenodd" clip-rule="evenodd" d="M10.9602 10.9601C10.3744 11.5459 10.3744 12.4957 10.9602 13.0815L19.799 21.9203L10.9602 30.7591C10.3744 31.3449 10.3744 32.2947 10.9602 32.8804C11.5459 33.4662 12.4957 33.4662 13.0815 32.8804L21.9203 24.0416L30.7591 32.8804C31.3449 33.4662 32.2947 33.4662 32.8805 32.8804C33.4663 32.2947 33.4663 31.3449 32.8805 30.7591L24.0416 21.9203L32.8805 13.0815C33.4663 12.4957 33.4663 11.5459 32.8805 10.9601C32.2947 10.3743 31.3449 10.3743 30.7591 10.9601L21.9203 19.799L13.0815 10.9601C12.4957 10.3743 11.5459 10.3743 10.9602 10.9601Z" fill="#146093"/>
</svg>
