<svg width="193" height="49" viewBox="0 0 193 49" fill="none" xmlns="http://www.w3.org/2000/svg">
<path d="M127.117 29.4283H120.821V36.62H118.27V18.3394H127.117C130.749 18.3394 132.94 21.0018 132.94 23.8839C132.94 26.766 130.749 29.4283 127.117 29.4283ZM126.894 20.4254H120.821V27.3698H126.894C129.001 27.3698 130.36 25.9149 130.36 23.8839C130.36 21.8528 128.779 20.4254 126.894 20.4254Z" fill="#181818"/>
<path d="M141.368 36.9194C136.155 36.9194 132.41 32.6647 132.41 27.5045C132.41 22.3442 136.155 18.0623 141.368 18.0623C146.582 18.0623 150.324 22.3442 150.324 27.5045C150.324 32.6647 146.582 36.9194 141.368 36.9194ZM141.368 20.2581C137.486 20.2581 134.934 23.3598 134.934 27.5045C134.934 31.6494 137.486 34.7236 141.368 34.7236C145.25 34.7236 147.773 31.6494 147.773 27.5045C147.773 23.3598 145.25 20.2581 141.368 20.2581Z" fill="#181818"/>
<path d="M157.563 36.9194C155.122 36.9194 152.543 36.4251 150.075 35.4371L150.63 33.4884C152.876 34.2568 155.372 34.7782 157.507 34.7782C160.502 34.7782 162.221 33.6253 162.221 32.0058C162.221 30.5513 161.334 29.8102 157.119 28.2732C152.266 26.4891 150.714 25.2537 150.714 22.4266C150.714 19.4348 153.181 18.0623 157.729 18.0623C159.643 18.0623 162.415 18.4191 164.218 18.9955L163.747 20.9992C161.889 20.5326 159.697 20.2307 157.784 20.2307C154.512 20.2307 153.237 20.7522 153.237 22.4266C153.237 24.1833 154.429 24.7597 158.81 26.4617C163.581 28.3279 164.745 29.3709 164.745 31.951C164.745 34.8607 161.944 36.9194 157.563 36.9194Z" fill="#181818"/>
<path d="M178.109 36.6176L176.277 31.9787H168.014L166.155 36.6176H163.631L171.063 18.337H173.198L180.631 36.6176H178.109ZM172.145 21.0819L168.706 30.0301H175.556L172.145 21.0819Z" fill="#181818"/>
<path d="M185.957 29.2614V36.6176H183.406V29.2614L176.333 18.337H178.968L184.68 27.0107L190.366 18.337H193L185.957 29.2614Z" fill="#181818"/>
<path d="M118.336 0H91.6884V36.6241H118.336V0Z" fill="#009FE3"/>
<path d="M0 36.6176V18.337H2.55133V34.449H11.9801V36.6176H0Z" fill="#181818"/>
<path d="M25.8694 36.6176L24.039 31.9787H15.7751L13.917 36.6176H11.3934L18.8255 18.337H20.9609L28.3931 36.6176H25.8694ZM19.9069 21.0819L16.4683 30.0301H23.3181L19.9069 21.0819Z" fill="#181818"/>
<path d="M46.1745 36.6176L40.656 29.1789H35.1095V36.6176H32.5582V18.337H41.5155C45.0653 18.337 47.2839 20.9171 47.2839 23.7719C47.2839 26.0501 45.8972 28.1361 43.4292 28.8499L49.1973 36.6176H46.1745ZM41.2105 20.4231H35.1095V27.1478H41.2105C43.3182 27.1478 44.7048 25.8031 44.7048 23.7719C44.7048 21.7405 43.0964 20.4231 41.2105 20.4231Z" fill="#181818"/>
<path d="M56.7907 36.9194C51.577 36.9194 47.8332 32.6647 47.8332 27.5045C47.8332 22.3442 51.577 18.0623 56.7907 18.0623C62.0042 18.0623 65.7481 22.3442 65.7481 27.5045C65.7481 32.6647 62.0042 36.9194 56.7907 36.9194ZM56.7907 20.2581C52.9081 20.2581 50.3568 23.3598 50.3568 27.5045C50.3568 31.6494 52.9081 34.7236 56.7907 34.7236C60.6731 34.7236 63.1967 31.6494 63.1967 27.5045C63.1967 23.3598 60.6731 20.2581 56.7907 20.2581Z" fill="#181818"/>
<path d="M80.1139 20.7797C78.9217 20.4503 77.3685 20.2581 76.0375 20.2581C71.2398 20.2581 68.1892 23.1952 68.1892 27.4771C68.1892 31.7589 71.2398 34.7236 76.0375 34.7236C77.2578 34.7236 78.5888 34.5313 80.1139 34.1744L80.6131 36.2054C79.1433 36.6447 77.5073 36.9194 75.871 36.9194C69.9086 36.9194 65.6378 32.7195 65.6378 27.4771C65.6378 22.2343 69.9086 18.0623 75.871 18.0623C77.6182 18.0623 79.1157 18.2544 80.6411 18.7485L80.1139 20.7797Z" fill="#181818"/>
<path d="M94.3954 36.6176V28.3559H84.7726V36.6176H82.2212V18.337H84.7726V26.1321H94.3954V18.337H96.9746V36.6176H94.3954Z" fill="#181818"/>
<path d="M99.2485 36.6176V18.337H112.005V20.5055H101.828V26.0775H111.368V28.2457H101.828V34.449H112.005V36.6176H99.2485Z" fill="#181818"/>
<path d="M32.341 46.9922V39.8419H32.9918V46.434H36.7884V46.9922H32.341Z" fill="#181818"/>
<path d="M42.5388 46.9922L41.736 44.9953H38.189L37.3864 46.9922H36.7246L39.7184 39.8419H40.1957L43.2004 46.9922H42.5388ZM39.9571 40.6255L38.4059 44.4693H41.519L39.9571 40.6255Z" fill="#181818"/>
<path d="M46.7146 46.9922H43.4496V39.8419H46.3566C47.9186 39.8419 48.6888 40.572 48.6888 41.6671C48.6888 42.3111 48.2983 42.9663 47.55 43.2345C48.4719 43.5243 48.9057 44.1794 48.9057 45.006C48.9057 46.0369 48.114 46.9922 46.7146 46.9922ZM46.3783 40.4H44.1004V43.0306H46.3349C47.2461 43.0306 48.0271 42.6333 48.0271 41.7207C48.0271 40.8082 47.3547 40.4 46.3783 40.4ZM46.6496 43.5674H44.1004V46.434H46.6712C47.615 46.434 48.2549 45.9186 48.2549 45.006C48.2549 44.1794 47.7344 43.5674 46.6496 43.5674Z" fill="#181818"/>
<path d="M52.4123 47.1102C50.3839 47.1102 49.0063 45.4353 49.0063 43.4279C49.0063 41.42 50.3839 39.7345 52.4123 39.7345C54.4408 39.7345 55.8184 41.42 55.8184 43.4279C55.8184 45.4353 54.4408 47.1102 52.4123 47.1102ZM52.4123 40.2929C50.7852 40.2929 49.6571 41.6347 49.6571 43.4279C49.6571 45.2207 50.7852 46.5521 52.4123 46.5521C54.0394 46.5521 55.1675 45.2207 55.1675 43.4279C55.1675 41.6347 54.0394 40.2929 52.4123 40.2929Z" fill="#181818"/>
<path d="M61.9912 46.9922L59.6808 43.8896H57.1643V46.9922H56.5135V39.8419H59.7785C61.1777 39.8419 61.9696 40.8189 61.9696 41.8711C61.9696 42.7621 61.3947 43.5994 60.3642 43.8249L62.7289 46.9922H61.9912ZM59.7785 40.4H57.1643V43.3528H59.7785C60.7438 43.3528 61.3188 42.7621 61.3188 41.8711C61.3188 40.98 60.6028 40.4 59.7785 40.4Z" fill="#181818"/>
<path d="M68.3139 46.9922L67.5112 44.9953H63.9642L63.1616 46.9922H62.4999L65.4936 39.8419H65.9709L68.9756 46.9922H68.3139ZM65.7323 40.6255L64.1812 44.4693H67.2942L65.7323 40.6255Z" fill="#181818"/>
<path d="M71.0081 40.4V46.9922H70.357V40.4H67.8731V39.8419H73.4919V40.4H71.0081Z" fill="#181818"/>
<path d="M76.4496 47.1102C74.4211 47.1102 73.0436 45.4353 73.0436 43.4279C73.0436 41.42 74.4211 39.7345 76.4496 39.7345C78.4781 39.7345 79.8558 41.42 79.8558 43.4279C79.8558 45.4353 78.4781 47.1102 76.4496 47.1102ZM76.4496 40.2929C74.8224 40.2929 73.6944 41.6347 73.6944 43.4279C73.6944 45.2207 74.8224 46.5521 76.4496 46.5521C78.0768 46.5521 79.2049 45.2207 79.2049 43.4279C79.2049 41.6347 78.0768 40.2929 76.4496 40.2929Z" fill="#181818"/>
<path d="M80.6087 46.9922V39.8419H81.2597V46.9922H80.6087Z" fill="#181818"/>
<path d="M87.9742 46.9922L85.6639 43.8896H83.1472V46.9922H82.4964V39.8419H85.7614C87.1607 39.8419 87.9525 40.8189 87.9525 41.8711C87.9525 42.7621 87.3776 43.5994 86.3471 43.8249L88.7118 46.9922H87.9742ZM85.7614 40.4H83.1472V43.3528H85.7614C86.7267 43.3528 87.3017 42.7621 87.3017 41.8711C87.3017 40.98 86.5857 40.4 85.7614 40.4Z" fill="#181818"/>
<path d="M89.0814 46.9922V39.8419H93.8976V40.4H89.7432V43.0091H93.6264V43.5674H89.7432V46.434H93.8976V46.9922H89.0814Z" fill="#181818"/>
<path d="M97.4905 46.9946H96.0478V39.8444H97.4905C99.9527 39.8444 101.743 41.358 101.743 43.4195C101.743 45.4808 99.9527 46.9946 97.4905 46.9946ZM97.5881 40.4024H96.6985V46.4363H97.5881C99.3344 46.4363 101.081 45.3412 101.081 43.4195C101.081 41.4976 99.3344 40.4024 97.5881 40.4024Z" fill="#181818"/>
<path d="M102.261 46.9922V39.8419H107.078V40.4H102.923V43.0091H106.806V43.5674H102.923V46.434H107.078V46.9922H102.261Z" fill="#181818"/>
<path d="M113.411 46.9922L111.101 43.8896H108.584V46.9922H107.934V39.8419H111.199C112.597 39.8419 113.389 40.8189 113.389 41.8711C113.389 42.7621 112.815 43.5994 111.784 43.8249L114.149 46.9922H113.411ZM111.199 40.4H108.584V43.3528H111.199C112.164 43.3528 112.739 42.7621 112.739 41.8711C112.739 40.98 112.023 40.4 111.199 40.4Z" fill="#181818"/>
<path d="M120.562 46.9922V41.0227L118.056 46.0474H117.645L115.139 41.0227V46.9922H114.509V39.8419H115.139L117.85 45.1991L120.562 39.8419H121.191V46.9922H120.562Z" fill="#181818"/>
<path d="M127.265 46.9922L126.463 44.9953H122.916L122.113 46.9922H121.451L124.446 39.8419H124.922L127.927 46.9922H127.265ZM124.684 40.6255L123.132 44.4693H126.245L124.684 40.6255Z" fill="#181818"/>
<path d="M129.959 40.4V46.9922H129.308V40.4H126.825V39.8419H132.443V40.4H129.959Z" fill="#181818"/>
<path d="M135.407 47.1102C133.378 47.1102 132 45.4353 132 43.4279C132 41.42 133.378 39.7345 135.407 39.7345C137.434 39.7345 138.812 41.42 138.812 43.4279C138.812 45.4353 137.434 47.1102 135.407 47.1102ZM135.407 40.2929C133.779 40.2929 132.651 41.6347 132.651 43.4279C132.651 45.2207 133.779 46.5521 135.407 46.5521C137.033 46.5521 138.161 45.2207 138.161 43.4279C138.161 41.6347 137.033 40.2929 135.407 40.2929Z" fill="#181818"/>
<path d="M139.503 46.9922V39.8419H140.154V46.434H143.95V46.9922H139.503Z" fill="#181818"/>
<path d="M147.012 47.1102C144.983 47.1102 143.606 45.4353 143.606 43.4279C143.606 41.42 144.983 39.7345 147.012 39.7345C149.04 39.7345 150.418 41.42 150.418 43.4279C150.418 45.4353 149.04 47.1102 147.012 47.1102ZM147.012 40.2929C145.384 40.2929 144.256 41.6347 144.256 43.4279C144.256 45.2207 145.384 46.5521 147.012 46.5521C148.639 46.5521 149.767 45.2207 149.767 43.4279C149.767 41.6347 148.639 40.2929 147.012 40.2929Z" fill="#181818"/>
<path d="M154.442 47.1102C152.142 47.1102 150.462 45.4784 150.462 43.4171C150.462 41.2806 151.98 39.7345 154.432 39.7345C155.017 39.7345 155.755 39.8096 156.309 39.9599L156.21 40.4861C155.569 40.3465 154.974 40.2929 154.41 40.2929C152.49 40.2929 151.112 41.463 151.112 43.4171C151.112 45.2958 152.544 46.5521 154.41 46.5521C154.855 46.5521 155.43 46.4983 155.971 46.3911V43.8356H156.557V46.7991C155.874 47.0139 155.028 47.1102 154.442 47.1102Z" fill="#181818"/>
<path d="M157.578 46.9922V39.8419H158.228V46.9922H157.578Z" fill="#181818"/>
<path d="M162.646 47.0998V49H161.985V47.0998C160.13 46.9278 158.905 45.3173 158.905 43.4171C158.905 41.4093 160.293 39.7345 162.322 39.7345C164.351 39.7345 165.727 41.4093 165.727 43.4171C165.727 45.3173 164.501 46.9278 162.646 47.0998ZM162.322 40.2929C160.695 40.2929 159.566 41.6241 159.566 43.4171C159.566 45.2099 160.695 46.5521 162.322 46.5521C163.949 46.5521 165.076 45.2099 165.076 43.4171C165.076 41.6241 163.949 40.2929 162.322 40.2929Z" fill="#181818"/>
<path d="M169.153 47.1102C167.319 47.1102 166.301 45.8435 166.301 44.4908V39.8419H166.962V44.5336C166.962 45.8218 167.884 46.5521 169.153 46.5521C170.423 46.5521 171.345 45.736 171.345 44.5336V39.8419H171.996V44.4908C171.996 45.8542 170.987 47.1102 169.153 47.1102Z" fill="#181818"/>
<path d="M173.06 46.9922V39.8419H177.876V40.4H173.721V43.0091H177.604V43.5674H173.721V46.434H177.876V46.9922H173.06Z" fill="#181818"/>
</svg>
