<svg width="287" height="490" viewBox="0 0 287 490" fill="none" xmlns="http://www.w3.org/2000/svg">
<path d="M154.375 24.7809C154.375 24.7809 116.626 -29.5581 106.494 22.6947C93.3807 90.544 45.7967 80.8086 86.7248 136.34C124.971 188.295 16.9881 186.506 92.0892 232.501C144.64 264.687 239.311 254.455 248.848 185.91C253.716 151.34 194.31 141.207 220.039 106.339C236.331 84.1862 195.701 -18.7301 154.375 24.7809Z" fill="url(#paint0_linear_1_7109)"/>
<path d="M212.986 48.9205C209.111 40.874 204.542 33.2248 199.078 27.2644C162.521 53.8875 125.467 29.4499 108.48 14.7476C107.785 17.0324 107.089 19.7146 106.493 22.6948C104.606 32.6288 101.924 40.874 98.9434 47.9271C123.282 53.4902 166.395 59.7486 212.986 48.9205Z" fill="#674434"/>
<path d="M102.717 184.42C92.7831 188.593 53.3451 256.343 49.1729 273.23L83.1472 280.582C83.1472 280.582 97.2535 265.283 103.015 244.223C109.472 223.759 105.3 199.123 102.717 184.42Z" fill="#DFECFE"/>
<path d="M97.2545 322.105C97.2545 322.105 80.466 416.081 85.3337 543.038C85.3337 543.038 123.679 558.634 215.866 546.713C215.866 546.713 254.41 386.478 182.786 320.317L97.2545 322.105Z" fill="#30393F"/>
<path d="M188.249 178.361C163.811 171.307 142.155 173.592 126.857 177.665C111.658 181.738 102.221 184.718 102.221 184.718L98.2469 211.143C87.2202 228.627 85.2334 237.468 85.0347 243.23C84.7367 256.243 92.4853 268.065 92.4853 268.065L97.2535 322.106C149.01 342.272 185.567 323.298 185.567 323.298C191.329 284.158 213.68 244.918 213.68 244.918V188.791C205.832 184.023 196.296 180.745 188.249 178.361Z" fill="#8FBDE9"/>
<path d="M179.805 172.003C179.805 172.003 140.765 247.501 157.156 514.229C157.156 514.229 190.236 516.117 231.959 509.659C231.959 509.659 241.098 417.273 207.819 336.808C196.494 309.291 209.508 268.164 213.581 244.918C218.25 218.096 215.071 205.381 213.78 184.52C213.78 184.42 196.892 177.963 179.805 172.003Z" fill="#FCFDFF"/>
<path d="M135.996 171.208C135.996 171.208 101.128 241.74 115.135 517.209C115.135 517.209 92.8827 521.282 73.0146 514.428C73.0146 514.428 85.5315 389.259 87.2203 271.74C87.2203 271.74 82.8493 254.852 83.346 243.13C83.6441 237.071 86.9223 221.474 94.0748 210.547L102.221 184.619C102.221 184.718 127.85 174.288 135.996 171.208Z" fill="#FCFDFF"/>
<path d="M134.308 171.804C134.308 171.804 124.275 188.99 134.308 211.044L149.209 196.143L155.964 215.117C155.964 215.117 177.422 202.103 178.018 179.354L150.699 187.997L134.308 171.804Z" fill="#7CA8D2"/>
<path d="M119.208 177.864C119.208 177.864 110.168 189.089 104.307 203.593L108.778 209.355L99.5391 214.024C99.5391 214.024 104.307 251.375 116.228 273.429L117.222 211.838L119.208 177.864Z" fill="#DFECFE"/>
<path d="M195.799 177.765C195.799 177.765 197.091 193.063 194.607 207.865L186.461 212.534L193.117 217.699C193.117 217.699 179.905 244.521 158.547 273.528L175.931 211.242L195.799 177.765Z" fill="#DFECFE"/>
<path d="M135.996 169.718C135.996 169.718 120.002 222.368 116.625 274.82C116.625 274.82 105.399 235.879 105.399 215.514L114.539 211.342L107.287 203.593C107.287 203.593 116.923 180.943 120.797 175.48L135.996 169.718Z" fill="#FCFDFF"/>
<path d="M179.805 170.513C179.805 170.513 160.037 215.514 158.447 274.82C158.447 274.82 180.699 229.322 187.653 217.799L179.805 212.434L190.633 206.176C190.633 206.176 196.197 182.533 195.799 176.374L179.805 170.513Z" fill="#FCFDFF"/>
<path d="M142.156 165.149L142.057 189.785L172.157 189.884L172.256 157.897C159.739 166.043 147.222 165.745 142.156 165.149Z" fill="#FAA284"/>
<path d="M172.257 157.797L172.357 133.161L142.257 133.061L142.157 165.049C147.224 165.744 159.74 166.042 172.257 157.797Z" fill="#EF8D72"/>
<path d="M142.057 166.341C142.057 166.341 141.56 180.546 151.395 186.308C151.395 186.308 170.865 181.937 172.256 166.142L179.905 172.102C179.905 172.102 175.236 200.215 156.66 207.865L150.799 189.785L135.6 204.884C135.6 204.884 128.646 185.414 134.308 171.904L142.057 166.341Z" fill="#8FBDE9"/>
<path d="M171.162 423.929C171.162 423.929 198.778 425.22 217.057 420.651C217.057 420.651 218.646 464.857 217.057 474.592L194.407 484.228L171.062 474.592C171.162 474.493 174.539 433.863 171.162 423.929Z" fill="#EBF3FC"/>
<path d="M73.3123 420.651C73.3123 420.651 91.5908 423.134 95.2664 423.532C95.2664 423.532 93.2797 466.049 94.4718 473.4L78.5774 477.473L73.213 470.818C73.213 470.718 70.0341 442.605 73.3123 420.651Z" fill="#EBF3FC"/>
<path d="M199.375 346.543C193.912 344.854 189.243 341.079 189.243 341.079C189.243 341.079 185.667 344.059 187.057 348.033C187.157 348.232 187.256 348.43 187.355 348.629L169.275 355.782C169.275 355.782 165.5 358.662 169.275 361.345C173.05 364.027 178.812 362.537 178.812 362.537L172.653 371.577C172.653 371.577 170.269 374.855 174.143 376.544C174.143 376.544 178.514 385.186 187.554 378.828L188.845 380.12C188.845 380.12 191.726 383.795 196.594 380.716C201.462 377.537 214.177 374.656 220.634 375.749C218.449 365.02 214.078 353.397 211.793 347.139C207.819 347.338 202.654 347.536 199.375 346.543Z" fill="#DFECFE"/>
<path d="M220.832 346.344L212.587 343.066L207.521 345.45C202.156 345.053 199.077 342.272 196.494 342.47C193.911 342.669 189.342 340.98 189.342 340.98C187.851 345.053 193.315 347.735 193.315 347.735C192.918 347.735 192.62 347.735 192.222 347.735C191.328 347.735 190.434 347.835 189.54 347.835C188.348 347.835 187.255 347.934 186.063 347.934C184.971 348.033 183.878 348.033 182.686 348.033C181.792 348.133 180.997 348.133 180.103 348.331C179.209 348.53 178.414 348.927 177.619 349.225C176.626 349.722 171.46 353.1 170.566 353.497C170.169 353.696 169.275 354.093 169.275 354.093C169.076 355.285 169.275 356.477 170.07 357.272C171.46 358.762 174.043 358.166 175.235 357.57C176.129 357.173 177.321 356.378 178.215 355.881C178.911 355.384 178.712 355.285 180.103 355.086C180.898 354.987 181.792 355.086 182.686 355.086C184.573 355.086 186.361 354.987 188.249 354.987C188.646 354.987 189.043 354.987 189.54 354.987C189.54 354.987 181.494 358.563 179.01 359.954C177.222 360.947 172.95 367.703 172.95 367.703C169.871 372.471 176.527 372.471 176.527 372.471C176.328 372.868 176.03 373.663 176.129 374.16C176.229 374.557 176.626 374.855 176.924 375.054C177.52 375.451 178.215 375.451 178.811 375.55C180.003 375.65 181.196 375.451 182.288 374.954C182.586 374.756 182.884 374.557 183.182 374.358C183.48 374.16 183.679 373.961 183.977 373.762C184.275 373.464 184.673 373.166 184.971 372.868C185.964 371.974 186.957 370.981 187.851 369.987C187.951 369.888 188.149 369.491 188.348 369.391L194.805 367.405C192.918 369.193 191.527 373.762 189.043 376.246C188.646 376.643 188.249 377.041 187.951 377.537C187.653 378.034 187.454 378.63 187.653 379.226C187.851 379.822 188.447 379.822 188.845 379.921C190.236 380.12 191.626 379.723 192.818 379.127C193.514 378.829 194.11 378.332 194.606 377.835C195.004 377.438 195.401 377.041 195.799 376.643C195.997 376.445 196.097 376.246 196.295 376.047C199.176 370.683 203.15 367.305 209.507 368.895C218.746 371.179 222.223 357.371 222.223 357.371L220.832 346.344Z" fill="#FAA284"/>
<path d="M206.826 343.861C211.296 338.199 213.879 336.212 218.151 329.854C226.595 337.603 227.191 338.199 236.827 347.835C230.568 355.186 223.913 360.749 223.913 360.749C211.694 355.98 206.826 343.861 206.826 343.861Z" fill="#8FBDE9"/>
<path d="M213.781 184.42C213.781 184.42 259.676 211.341 286.895 283.264C286.895 283.264 291.763 307.105 235.338 352.305C235.338 352.305 223.218 349.424 213.483 333.629L245.768 279.985L208.317 238.859C208.317 238.759 199.079 204.686 213.781 184.42Z" fill="#FCFDFF"/>
<path d="M0 238.66L2.18556 235.382L89.3068 234.388L120.897 344.06L118.215 347.04L85.0353 241.144L0 238.66Z" fill="#449BAA"/>
<path d="M0 238.759H87.32L118.215 347.04H31.0935L0 238.759Z" fill="#60BCD1"/>
<path d="M42.1196 301.343H41.5235C41.5235 301.343 21.0595 301.244 18.9734 301.145L24.8343 299.655C24.8343 299.655 39.8348 301.939 39.8348 298.661V298.164C39.8348 296.476 38.742 295.184 37.1525 294.986H37.4506C37.4506 294.986 26.7218 292.8 24.3376 292.899C21.9535 292.999 12.6156 294.986 12.6156 294.986C11.0261 294.986 8.93993 296.476 8.93993 298.264V298.76C8.93993 299.655 10.1321 300.35 10.6288 300.946H11.1255C11.4235 301.343 11.3241 302.436 11.3241 302.436H10.0328C9.03936 302.933 6.95312 303.628 6.95312 304.721V305.218C6.95312 306.509 9.4367 307.8 10.6288 308.496C10.6288 308.496 11.3241 308.496 11.4234 308.496C12.6155 309.489 12.4168 310.085 12.4168 310.085H12.6156C12.3176 310.383 12.1189 310.681 12.0196 311.079C11.5229 312.37 12.0196 313.86 13.013 314.754C13.5097 315.152 14.1057 315.45 14.7017 315.648C16.0925 316.244 16.1918 317.238 16.0925 317.933C15.9931 318.132 15.8937 318.33 15.8937 318.529C15.8937 319.423 16.2912 320.317 16.9866 320.814C17.98 321.609 19.3707 322.006 20.5628 322.105C21.4569 322.105 22.4502 322.006 23.3442 322.006C26.7218 322.006 30.1988 322.006 33.5763 322.006C34.371 322.006 34.5698 322.006 35.4638 322.006C36.7552 322.006 37.7486 320.317 37.7486 318.728V318.33C37.7486 316.741 37.2519 316.244 36.0598 316.244H38.444C40.0335 316.244 40.7288 313.959 40.7288 312.171V311.675C40.7288 309.887 39.8347 309.291 38.2453 309.291H42.0202C43.9077 309.291 45.6958 307.701 45.6958 305.913V304.721C45.8945 302.833 44.007 301.343 42.1196 301.343Z" fill="#FAA284"/>
<path d="M15.6957 292.701L6.45703 261.011L30.1 238.759H79.2733L15.6957 292.701Z" fill="#7BCDDB"/>
<path d="M200.568 92.1332L199.773 92.4313C199.773 92.4313 195.005 118.856 185.468 78.921C161.925 59.053 153.679 36.2048 153.679 36.2048C133.315 47.0329 116.327 64.9141 107.784 84.7821C109.175 92.1332 110.764 104.054 110.069 114.187C108.281 139.518 129.44 156.406 148.414 156.704C184.971 157.201 194.905 127.399 194.905 127.399C194.905 127.399 211.694 128.094 214.277 105.345C216.363 86.7689 200.568 92.1332 200.568 92.1332Z" fill="#FAA284"/>
<g opacity="0.9">
<path opacity="0.0909091" d="M127.255 102.663C135.6 104.352 140.964 112.597 139.275 120.942C137.587 129.287 129.341 134.651 120.997 132.962C112.652 131.273 107.288 123.028 108.977 114.684C110.665 106.339 118.911 100.975 127.255 102.663Z" fill="#EA7460"/>
<path opacity="0.1818" d="M126.957 104.154C134.507 105.743 139.375 113.094 137.785 120.644C136.196 128.194 128.845 133.062 121.295 131.472C113.745 129.883 108.877 122.532 110.467 114.982C111.957 107.432 119.407 102.564 126.957 104.154Z" fill="#EA7460"/>
<path opacity="0.2727" d="M126.659 105.544C133.414 106.935 137.785 113.491 136.394 120.247C135.003 127.002 128.447 131.373 121.692 129.982C114.936 128.591 110.566 122.035 111.956 115.28C113.248 108.524 119.903 104.153 126.659 105.544Z" fill="#EA7460"/>
<path opacity="0.3636" d="M126.36 107.034C132.321 108.226 136.095 114.087 134.903 120.048C133.711 126.008 127.85 129.783 121.89 128.591C115.929 127.399 112.155 121.538 113.347 115.577C114.539 109.617 120.4 105.842 126.36 107.034Z" fill="#EA7460"/>
<path opacity="0.4545" d="M126.062 108.525C131.228 109.617 134.506 114.584 133.414 119.75C132.321 124.916 127.354 128.194 122.188 127.101C117.022 126.009 113.744 121.042 114.837 115.876C115.83 110.81 120.897 107.432 126.062 108.525Z" fill="#EA7460"/>
<path opacity="0.5455" d="M125.766 110.015C130.136 110.909 132.918 115.18 132.024 119.452C131.13 123.823 126.858 126.604 122.587 125.71C118.216 124.816 115.434 120.545 116.328 116.273C117.123 111.902 121.395 109.121 125.766 110.015Z" fill="#EA7460"/>
<path opacity="0.6364" d="M125.467 111.405C129.043 112.101 131.229 115.577 130.533 119.154C129.838 122.73 126.361 124.915 122.785 124.22C119.209 123.525 117.023 120.048 117.718 116.472C118.414 112.995 121.891 110.71 125.467 111.405Z" fill="#EA7460"/>
<path opacity="0.7273" d="M125.169 112.895C127.851 113.492 129.639 116.074 129.043 118.856C128.447 121.538 125.864 123.326 123.083 122.73C120.401 122.134 118.613 119.551 119.209 116.77C119.705 114.088 122.387 112.299 125.169 112.895Z" fill="#EA7460"/>
<path opacity="0.8182" d="M124.87 114.385C126.758 114.783 128.049 116.67 127.652 118.558C127.254 120.445 125.367 121.737 123.48 121.339C121.592 120.942 120.301 119.054 120.698 117.167C121.095 115.18 122.884 113.988 124.87 114.385Z" fill="#EA7460"/>
<path opacity="0.9091" d="M124.573 115.776C125.666 115.975 126.361 117.068 126.163 118.161C125.964 119.253 124.871 119.949 123.779 119.75C122.686 119.551 121.99 118.459 122.189 117.366C122.388 116.273 123.381 115.578 124.573 115.776Z" fill="#EA7460"/>
<path opacity="0.9" d="M124.672 117.962C124.573 118.26 124.275 118.459 123.977 118.359C123.679 118.26 123.48 117.962 123.58 117.664C123.679 117.366 123.977 117.167 124.275 117.266C124.573 117.366 124.772 117.664 124.672 117.962Z" fill="#EA7460"/>
</g>
<g opacity="0.9">
<path opacity="0.0909091" d="M176.329 102.365C185.269 104.253 191.031 112.995 189.243 121.935C187.356 130.876 178.614 136.638 169.673 134.85C160.732 132.962 154.971 124.22 156.759 115.28C158.547 106.24 167.388 100.478 176.329 102.365Z" fill="#EA7460"/>
<path opacity="0.1818" d="M176.03 103.856C184.077 105.544 189.342 113.392 187.653 121.538C185.964 129.684 178.116 134.85 169.971 133.161C161.924 131.472 156.659 123.624 158.348 115.478C159.937 107.432 167.884 102.266 176.03 103.856Z" fill="#EA7460"/>
<path opacity="0.2727" d="M175.634 105.445C182.886 106.935 187.555 113.988 186.064 121.24C184.574 128.492 177.521 133.161 170.269 131.671C163.017 130.18 158.348 123.127 159.839 115.876C161.329 108.624 168.382 103.955 175.634 105.445Z" fill="#EA7460"/>
<path opacity="0.3636" d="M175.336 107.035C181.694 108.326 185.767 114.584 184.475 120.942C183.184 127.3 176.925 131.373 170.568 130.082C164.21 128.79 160.137 122.532 161.428 116.174C162.72 109.816 168.978 105.743 175.336 107.035Z" fill="#EA7460"/>
<path opacity="0.4545" d="M175.037 108.624C180.501 109.717 184.077 115.18 182.984 120.644C181.891 126.108 176.428 129.684 170.964 128.591C165.5 127.498 161.924 122.035 163.017 116.571C164.11 111.008 169.474 107.432 175.037 108.624Z" fill="#EA7460"/>
<path opacity="0.5455" d="M174.74 110.114C179.409 111.107 182.389 115.578 181.396 120.247C180.402 124.916 175.932 127.896 171.263 126.902C166.594 125.909 163.614 121.439 164.607 116.77C165.501 112.2 170.071 109.22 174.74 110.114Z" fill="#EA7460"/>
<path opacity="0.6364" d="M174.342 111.703C178.117 112.498 180.6 116.174 179.805 119.949C179.011 123.723 175.335 126.207 171.56 125.412C167.785 124.618 165.302 120.942 166.096 117.167C166.891 113.392 170.567 110.909 174.342 111.703Z" fill="#EA7460"/>
<path opacity="0.7273" d="M174.044 113.293C176.925 113.889 178.812 116.77 178.216 119.651C177.62 122.532 174.739 124.419 171.858 123.823C168.978 123.227 167.09 120.346 167.686 117.465C168.282 114.584 171.163 112.697 174.044 113.293Z" fill="#EA7460"/>
<path opacity="0.8182" d="M173.745 114.783C175.831 115.18 177.123 117.167 176.725 119.253C176.328 121.339 174.341 122.631 172.255 122.233C170.169 121.836 168.877 119.849 169.275 117.763C169.672 115.776 171.659 114.385 173.745 114.783Z" fill="#EA7460"/>
<path opacity="0.9091" d="M173.448 116.372C174.64 116.571 175.434 117.763 175.136 118.955C174.938 120.147 173.746 120.942 172.553 120.644C171.361 120.445 170.567 119.253 170.865 118.061C171.063 116.869 172.255 116.173 173.448 116.372Z" fill="#EA7460"/>
<path opacity="0.9" d="M173.549 118.657C173.449 118.955 173.151 119.154 172.853 119.154C172.555 119.054 172.356 118.756 172.356 118.458C172.456 118.16 172.754 117.962 173.052 117.962C173.449 118.061 173.648 118.359 173.549 118.657Z" fill="#EA7460"/>
</g>
<path d="M148.614 121.042C142.256 123.823 138.282 122.234 137.487 117.962C136.991 115.18 138.68 112.002 140.468 110.511C144.044 107.432 145.832 98.1933 145.832 98.094C146.031 100.081 145.534 107.829 141.163 113.094C140.17 114.286 139.772 115.28 139.872 116.671C139.971 119.949 142.951 122.432 148.614 121.042Z" fill="#DB7C65"/>
<path d="M126.063 92.5307C126.063 92.5307 120.5 92.6301 119.706 90.5439C119.706 90.5439 119.01 93.5241 122.388 94.5175C121.295 95.809 120.6 97.6964 120.6 99.7826C120.6 103.756 122.984 106.935 126.063 106.935C129.044 106.935 131.527 103.756 131.527 99.7826C131.527 95.809 129.044 92.5307 126.063 92.5307Z" fill="#502F26"/>
<path d="M167.786 92.5307C167.786 92.5307 162.223 92.6301 161.428 90.5439C161.428 90.5439 160.733 93.5241 164.111 94.5175C163.018 95.809 162.322 97.6964 162.322 99.7826C162.322 103.756 164.707 106.935 167.786 106.935C170.766 106.935 173.25 103.756 173.25 99.7826C173.25 95.809 170.766 92.5307 167.786 92.5307Z" fill="#502F26"/>
<path d="M191.825 121.041C191.825 121.041 189.242 137.035 164.01 147.366C141.758 156.506 120.399 141.505 115.73 137.83C123.082 149.651 136.195 156.704 148.413 156.804C184.97 157.3 194.905 127.498 194.905 127.498C194.905 127.498 205.534 127.995 211.196 116.67C201.66 123.525 191.825 121.041 191.825 121.041Z" fill="#EF8D72"/>
<path d="M153.678 36.3043C153.678 36.3043 132.32 72.4641 99.8359 78.2258C99.8359 78.2258 136.791 84.2856 153.678 36.3043Z" fill="#502F26"/>
<path d="M136.692 81.6032C136.692 81.6032 127.751 79.0204 115.433 82.3979C115.433 82.3979 115.334 81.5039 117.718 79.5171C119.903 77.7289 127.95 75.8415 134.904 78.8217C134.904 78.8217 138.48 80.8085 136.692 81.6032Z" fill="#502F26"/>
<path d="M156.261 81.305C156.261 81.305 165.202 78.8215 177.421 82.3977C177.421 82.3977 177.52 81.5036 175.136 79.5168C172.95 77.6294 164.904 75.7419 157.95 78.5234C158.049 78.6228 154.473 80.5102 156.261 81.305Z" fill="#502F26"/>
<path d="M190.137 85.1796C190.137 85.1796 198.382 87.4644 204.938 91.438C204.938 91.438 202.455 91.438 199.773 92.4314C199.773 92.4314 195.998 91.5373 190.236 90.6433C190.236 90.6433 187.454 87.067 190.137 85.1796Z" fill="#302A28"/>
<path d="M104.705 86.8683C104.705 86.8683 130.434 86.3716 140.368 91.0406C140.368 91.0406 138.083 111.107 129.639 113.591C121.096 116.074 102.917 115.478 104.705 86.8683Z" fill="url(#paint1_linear_1_7109)"/>
<path d="M187.951 86.8683C187.951 86.8683 162.222 86.3716 152.288 91.0406C152.288 91.0406 154.573 111.107 163.017 113.591C171.56 116.074 189.739 115.478 187.951 86.8683Z" fill="url(#paint2_linear_1_7109)"/>
<path d="M190.236 87.0674L190.137 85.18L188.15 85.0806C185.666 84.9813 183.282 84.882 180.799 84.882C163.215 84.882 151.99 88.4582 151.493 88.5575L150.599 88.8556C147.222 87.8622 143.546 88.2595 141.261 88.6569L140.963 88.5575C140.467 88.3589 129.34 84.882 111.658 84.882C109.274 84.882 106.79 84.9813 104.307 85.0806L102.32 85.18L102.221 87.0674C102.221 88.1602 101.128 113.393 114.936 114.585C118.512 114.883 122.287 115.181 125.168 115.181C129.539 115.181 132.917 114.585 135.5 111.704C139.672 107.035 141.361 98.4915 141.957 93.8226C145.533 93.3259 148.513 93.5245 150.301 93.8226C150.897 98.4915 152.586 106.935 156.758 111.704C159.341 114.585 162.719 115.181 167.09 115.181C169.971 115.181 173.745 114.883 177.322 114.585C191.229 113.393 190.236 88.0608 190.236 87.0674ZM132.42 109.022C131.327 110.313 129.837 111.008 125.367 111.008C123.181 111.008 120.301 110.81 115.532 110.412C108.181 109.816 106.691 96.2067 106.691 89.0542C108.38 88.9549 110.068 88.9549 111.757 88.9549C124.87 88.9549 134.407 91.041 137.983 91.9351C137.586 96.5047 135.897 105.048 132.42 109.022ZM177.123 110.512C172.355 110.909 169.474 111.108 167.288 111.108C162.917 111.108 161.328 110.412 160.235 109.121C156.659 105.048 155.07 96.6041 154.573 92.0344C158.248 91.1404 167.686 89.0542 180.799 89.0542C182.487 89.0542 184.176 89.0542 185.865 89.1536C185.964 96.2067 184.474 109.816 177.123 110.512Z" fill="#302A28"/>
<path d="M146.824 135.545C141.361 134.85 137.188 131.869 137.089 131.77C136.493 131.373 136.394 130.479 136.791 129.783C137.189 129.088 137.884 128.889 138.48 129.286C138.977 129.684 151.096 138.525 160.732 126.803C161.229 126.207 162.023 126.207 162.421 126.704C162.918 127.3 162.818 128.194 162.421 128.79C157.255 134.949 151.493 136.141 146.824 135.545Z" fill="#AA3030"/>
<defs>
<linearGradient id="paint0_linear_1_7109" x1="160.123" y1="24.9487" x2="156.951" y2="195.349" gradientUnits="userSpaceOnUse">
<stop stop-color="#502F26"/>
<stop offset="1" stop-color="#3B221D"/>
</linearGradient>
<linearGradient id="paint1_linear_1_7109" x1="122.494" y1="108.935" x2="122.494" y2="70.3065" gradientUnits="userSpaceOnUse">
<stop stop-color="white" stop-opacity="0"/>
<stop offset="1" stop-color="white"/>
</linearGradient>
<linearGradient id="paint2_linear_1_7109" x1="170.176" y1="108.935" x2="170.176" y2="70.3063" gradientUnits="userSpaceOnUse">
<stop stop-color="white" stop-opacity="0"/>
<stop offset="1" stop-color="white"/>
</linearGradient>
</defs>
</svg>
